# Blender v2.78 (sub 0) OBJ File: 'Button wall.blend'
# www.blender.org
mtllib Button wall.mtl
o Cylinder.001
v 0.000000 2.027581 -0.138561
v 0.044750 2.031989 -0.138561
v 0.087781 2.045042 -0.138561
v 0.127438 2.066239 -0.138561
v 0.162198 2.094766 -0.138561
v 0.190724 2.129526 -0.138561
v 0.211922 2.169183 -0.138561
v 0.224975 2.212213 -0.138561
v 0.229382 2.256963 -0.138561
v 0.224975 2.301714 -0.138561
v 0.211922 2.344744 -0.138561
v 0.190724 2.384401 -0.138561
v 0.162198 2.419161 -0.138561
v 0.127438 2.447688 -0.138561
v 0.087781 2.468885 -0.138561
v 0.044750 2.481938 -0.138561
v -0.000000 2.486346 -0.138561
v -0.044750 2.481938 -0.138561
v -0.087781 2.468885 -0.138561
v -0.127438 2.447688 -0.138561
v -0.162198 2.419161 -0.138561
v -0.190724 2.384401 -0.138561
v -0.211922 2.344744 -0.138561
v -0.224975 2.301713 -0.138561
v -0.229382 2.256963 -0.138561
v -0.224975 2.212213 -0.138561
v -0.211921 2.169183 -0.138561
v -0.190724 2.129525 -0.138561
v -0.162198 2.094766 -0.138561
v -0.127438 2.066239 -0.138561
v -0.087780 2.045042 -0.138561
v -0.044750 2.031989 -0.138561
v -0.000000 2.122228 -0.230798
v -0.000000 2.063525 -0.206599
v 0.026286 2.124817 -0.230798
v 0.037738 2.067242 -0.206599
v 0.051561 2.132484 -0.230798
v 0.074026 2.078250 -0.206599
v 0.074855 2.144935 -0.230798
v 0.107469 2.096126 -0.206599
v 0.095272 2.161691 -0.230798
v 0.136781 2.120182 -0.206599
v 0.112028 2.182109 -0.230798
v 0.160838 2.149495 -0.206599
v 0.124479 2.205402 -0.230798
v 0.178714 2.182938 -0.206599
v 0.132147 2.230678 -0.230798
v 0.189721 2.219226 -0.206599
v 0.134735 2.256963 -0.230798
v 0.193438 2.256963 -0.206599
v 0.132147 2.283249 -0.230798
v 0.189721 2.294701 -0.206599
v 0.124479 2.308525 -0.230798
v 0.178714 2.330989 -0.206599
v 0.112028 2.331819 -0.230798
v 0.160838 2.364432 -0.206599
v 0.095272 2.352236 -0.230798
v 0.136781 2.393745 -0.206599
v 0.074855 2.368992 -0.230798
v 0.107468 2.417802 -0.206599
v 0.051561 2.381443 -0.230798
v 0.074026 2.435677 -0.206599
v 0.026286 2.389110 -0.230798
v 0.037738 2.446685 -0.206599
v -0.000000 2.391699 -0.230798
v -0.000000 2.450402 -0.206599
v -0.026286 2.389110 -0.230798
v -0.037738 2.446685 -0.206599
v -0.051561 2.381443 -0.230798
v -0.074026 2.435677 -0.206599
v -0.074855 2.368992 -0.230798
v -0.107469 2.417801 -0.206599
v -0.095272 2.352236 -0.230798
v -0.136782 2.393745 -0.206599
v -0.112028 2.331818 -0.230798
v -0.160838 2.364432 -0.206599
v -0.124479 2.308524 -0.230798
v -0.178714 2.330989 -0.206599
v -0.132147 2.283249 -0.230798
v -0.189721 2.294701 -0.206599
v -0.134735 2.256963 -0.230798
v -0.193438 2.256963 -0.206599
v -0.132147 2.230678 -0.230798
v -0.189721 2.219225 -0.206599
v -0.124479 2.205402 -0.230798
v -0.178714 2.182938 -0.206599
v -0.112028 2.182108 -0.230798
v -0.160838 2.149495 -0.206599
v -0.095272 2.161691 -0.230798
v -0.136781 2.120182 -0.206599
v -0.074855 2.144935 -0.230798
v -0.107468 2.096125 -0.206599
v -0.051561 2.132484 -0.230798
v -0.074025 2.078250 -0.206599
v -0.026285 2.124817 -0.230798
v -0.037738 2.067242 -0.206599
v 0.000000 2.027581 -0.152101
v -0.000000 2.040888 -0.184071
v 0.042154 2.045040 -0.184071
v 0.044750 2.031989 -0.152101
v 0.082689 2.057336 -0.184071
v 0.087781 2.045042 -0.152101
v 0.120045 2.077303 -0.184071
v 0.127438 2.066239 -0.152101
v 0.152788 2.104175 -0.184071
v 0.162198 2.094766 -0.152101
v 0.179660 2.136918 -0.184071
v 0.190724 2.129526 -0.152101
v 0.199628 2.174275 -0.184071
v 0.211922 2.169183 -0.152101
v 0.211924 2.214809 -0.184071
v 0.224975 2.212213 -0.152101
v 0.216076 2.256963 -0.184071
v 0.229382 2.256963 -0.152101
v 0.211924 2.299118 -0.184071
v 0.224975 2.301714 -0.152101
v 0.199628 2.339652 -0.184071
v 0.211922 2.344744 -0.152101
v 0.179660 2.377009 -0.184071
v 0.190724 2.384401 -0.152101
v 0.152788 2.409752 -0.184071
v 0.162198 2.419161 -0.152101
v 0.120045 2.436624 -0.184071
v 0.127438 2.447688 -0.152101
v 0.082688 2.456591 -0.184071
v 0.087781 2.468885 -0.152101
v 0.042154 2.468887 -0.184071
v 0.044750 2.481938 -0.152101
v -0.000000 2.473039 -0.184071
v -0.000000 2.486346 -0.152101
v -0.042154 2.468887 -0.184071
v -0.044750 2.481938 -0.152101
v -0.082689 2.456591 -0.184071
v -0.087781 2.468885 -0.152101
v -0.120045 2.436624 -0.184071
v -0.127438 2.447688 -0.152101
v -0.152789 2.409752 -0.184071
v -0.162198 2.419161 -0.152101
v -0.179660 2.377008 -0.184071
v -0.190724 2.384401 -0.152101
v -0.199628 2.339652 -0.184071
v -0.211922 2.344744 -0.152101
v -0.211924 2.299118 -0.184071
v -0.224975 2.301713 -0.152101
v -0.216076 2.256963 -0.184071
v -0.229382 2.256963 -0.152101
v -0.211924 2.214809 -0.184071
v -0.224975 2.212213 -0.152101
v -0.199628 2.174275 -0.184071
v -0.211921 2.169183 -0.152101
v -0.179660 2.136918 -0.184071
v -0.190724 2.129525 -0.152101
v -0.152788 2.104175 -0.184071
v -0.162198 2.094766 -0.152101
v -0.120045 2.077303 -0.184071
v -0.127438 2.066239 -0.152101
v -0.082688 2.057336 -0.184071
v -0.087780 2.045042 -0.152101
v -0.042154 2.045040 -0.184071
v -0.044750 2.031989 -0.152101
vn 0.0693 -0.7037 -0.7071
vn 0.3333 -0.6236 -0.7071
vn 0.4486 -0.5466 -0.7071
vn 0.5466 -0.4486 -0.7071
vn 0.6236 -0.3333 -0.7071
vn 0.6767 -0.2053 -0.7071
vn 0.7037 -0.0693 -0.7071
vn 0.7037 0.0693 -0.7071
vn 0.6767 0.2053 -0.7071
vn 0.6236 0.3333 -0.7071
vn 0.5466 0.4486 -0.7071
vn 0.4486 0.5466 -0.7071
vn 0.3333 0.6236 -0.7071
vn 0.2053 0.6767 -0.7071
vn 0.0693 0.7037 -0.7071
vn -0.0693 0.7037 -0.7071
vn -0.2053 0.6767 -0.7071
vn -0.3333 0.6236 -0.7071
vn -0.4486 0.5466 -0.7071
vn -0.5466 0.4486 -0.7071
vn -0.6236 0.3333 -0.7071
vn -0.6767 0.2053 -0.7071
vn -0.7037 0.0693 -0.7071
vn -0.7037 -0.0693 -0.7071
vn -0.6767 -0.2053 -0.7071
vn -0.6236 -0.3333 -0.7071
vn -0.5466 -0.4486 -0.7071
vn -0.4486 -0.5466 -0.7071
vn -0.3333 -0.6236 -0.7071
vn -0.2053 -0.6767 -0.7071
vn 0.2053 -0.6767 -0.7071
vn 0.4714 -0.8819 0.0000
vn 0.0000 0.0000 -1.0000
vn 0.6344 -0.7730 0.0000
vn 0.7730 -0.6344 0.0000
vn 0.8819 -0.4714 0.0000
vn 0.9569 -0.2903 0.0000
vn 0.9952 -0.0980 0.0000
vn 0.9952 0.0980 0.0000
vn 0.9569 0.2903 0.0000
vn 0.8819 0.4714 0.0000
vn 0.7730 0.6344 0.0000
vn 0.6344 0.7730 0.0000
vn 0.4714 0.8819 0.0000
vn 0.2903 0.9569 0.0000
vn 0.0980 0.9952 0.0000
vn -0.0980 0.9952 0.0000
vn -0.2903 0.9569 0.0000
vn -0.4714 0.8819 0.0000
vn -0.6344 0.7730 0.0000
vn -0.7730 0.6344 0.0000
vn -0.8819 0.4714 0.0000
vn -0.9569 0.2903 0.0000
vn -0.9952 0.0980 0.0000
vn -0.9952 -0.0980 0.0000
vn -0.9569 -0.2903 0.0000
vn -0.8819 -0.4714 0.0000
vn -0.7730 -0.6344 0.0000
vn -0.6344 -0.7730 0.0000
vn -0.4714 -0.8819 0.0000
vn -0.2903 -0.9569 0.0000
vn 0.2903 -0.9569 0.0000
vn -0.0693 -0.7037 -0.7071
vn 0.0375 -0.3808 -0.9239
vn 0.1111 -0.3662 -0.9239
vn 0.1804 -0.3375 -0.9239
vn 0.2428 -0.2958 -0.9239
vn 0.2958 -0.2428 -0.9239
vn 0.3375 -0.1804 -0.9239
vn 0.3662 -0.1111 -0.9239
vn 0.3808 -0.0375 -0.9239
vn 0.3808 0.0375 -0.9239
vn 0.3662 0.1111 -0.9239
vn 0.3375 0.1804 -0.9239
vn 0.2958 0.2428 -0.9239
vn 0.2428 0.2958 -0.9239
vn 0.1804 0.3375 -0.9239
vn 0.1111 0.3662 -0.9239
vn 0.0375 0.3808 -0.9239
vn -0.0375 0.3808 -0.9239
vn -0.1111 0.3662 -0.9239
vn -0.1804 0.3375 -0.9239
vn -0.2428 0.2958 -0.9239
vn -0.2958 0.2428 -0.9239
vn -0.3375 0.1804 -0.9239
vn -0.3662 0.1111 -0.9239
vn -0.3808 0.0375 -0.9239
vn -0.3808 -0.0375 -0.9239
vn -0.3662 -0.1111 -0.9239
vn -0.3375 -0.1804 -0.9239
vn -0.2958 -0.2428 -0.9239
vn -0.2428 -0.2958 -0.9239
vn -0.1804 -0.3375 -0.9239
vn -0.1111 -0.3662 -0.9239
vn -0.0375 -0.3808 -0.9239
vn -0.0980 -0.9952 0.0000
vn 0.0906 -0.9194 -0.3827
vn 0.2682 -0.8841 -0.3827
vn 0.4355 -0.8148 -0.3827
vn 0.5861 -0.7142 -0.3827
vn 0.7142 -0.5861 -0.3827
vn 0.8148 -0.4355 -0.3827
vn 0.8841 -0.2682 -0.3827
vn 0.9194 -0.0906 -0.3827
vn 0.9194 0.0906 -0.3827
vn 0.8841 0.2682 -0.3827
vn 0.8148 0.4355 -0.3827
vn 0.7142 0.5861 -0.3827
vn 0.5861 0.7142 -0.3827
vn 0.4355 0.8148 -0.3827
vn 0.2682 0.8841 -0.3827
vn 0.0906 0.9194 -0.3827
vn -0.0906 0.9194 -0.3827
vn -0.2682 0.8841 -0.3827
vn -0.4355 0.8148 -0.3827
vn -0.5861 0.7142 -0.3827
vn -0.7142 0.5861 -0.3827
vn -0.8148 0.4355 -0.3827
vn -0.8841 0.2682 -0.3827
vn -0.9194 0.0906 -0.3827
vn -0.9194 -0.0906 -0.3827
vn -0.8841 -0.2682 -0.3827
vn -0.8148 -0.4355 -0.3827
vn -0.7142 -0.5861 -0.3827
vn -0.5861 -0.7142 -0.3827
vn -0.4355 -0.8148 -0.3827
vn -0.2682 -0.8841 -0.3827
vn -0.0906 -0.9194 -0.3827
vn 0.0980 -0.9952 0.0000
usemtl None
s off
f 99//1 98//1 34//1 36//1
f 103//2 101//2 38//2 40//2
f 105//3 103//3 40//3 42//3
f 107//4 105//4 42//4 44//4
f 109//5 107//5 44//5 46//5
f 111//6 109//6 46//6 48//6
f 113//7 111//7 48//7 50//7
f 115//8 113//8 50//8 52//8
f 117//9 115//9 52//9 54//9
f 119//10 117//10 54//10 56//10
f 121//11 119//11 56//11 58//11
f 123//12 121//12 58//12 60//12
f 125//13 123//13 60//13 62//13
f 127//14 125//14 62//14 64//14
f 129//15 127//15 64//15 66//15
f 131//16 129//16 66//16 68//16
f 133//17 131//17 68//17 70//17
f 135//18 133//18 70//18 72//18
f 137//19 135//19 72//19 74//19
f 139//20 137//20 74//20 76//20
f 141//21 139//21 76//21 78//21
f 143//22 141//22 78//22 80//22
f 145//23 143//23 80//23 82//23
f 147//24 145//24 82//24 84//24
f 149//25 147//25 84//25 86//25
f 151//26 149//26 86//26 88//26
f 153//27 151//27 88//27 90//27
f 155//28 153//28 90//28 92//28
f 157//29 155//29 92//29 94//29
f 159//30 157//30 94//30 96//30
f 101//31 99//31 36//31 38//31
f 3//32 102//32 104//32 4//32
f 35//33 33//33 95//33 93//33 91//33 89//33 87//33 85//33 83//33 81//33 79//33 77//33 75//33 73//33 71//33 69//33 67//33 65//33 63//33 61//33 59//33 57//33 55//33 53//33 51//33 49//33 47//33 45//33 43//33 41//33 39//33 37//33
f 4//34 104//34 106//34 5//34
f 5//35 106//35 108//35 6//35
f 6//36 108//36 110//36 7//36
f 7//37 110//37 112//37 8//37
f 8//38 112//38 114//38 9//38
f 9//39 114//39 116//39 10//39
f 10//40 116//40 118//40 11//40
f 11//41 118//41 120//41 12//41
f 12//42 120//42 122//42 13//42
f 13//43 122//43 124//43 14//43
f 14//44 124//44 126//44 15//44
f 15//45 126//45 128//45 16//45
f 16//46 128//46 130//46 17//46
f 17//47 130//47 132//47 18//47
f 18//48 132//48 134//48 19//48
f 19//49 134//49 136//49 20//49
f 20//50 136//50 138//50 21//50
f 21//51 138//51 140//51 22//51
f 22//52 140//52 142//52 23//52
f 23//53 142//53 144//53 24//53
f 24//54 144//54 146//54 25//54
f 25//55 146//55 148//55 26//55
f 26//56 148//56 150//56 27//56
f 27//57 150//57 152//57 28//57
f 28//58 152//58 154//58 29//58
f 29//59 154//59 156//59 30//59
f 30//60 156//60 158//60 31//60
f 31//61 158//61 160//61 32//61
f 2//62 100//62 102//62 3//62
f 98//63 159//63 96//63 34//63
f 33//64 35//64 36//64 34//64
f 35//65 37//65 38//65 36//65
f 37//66 39//66 40//66 38//66
f 39//67 41//67 42//67 40//67
f 41//68 43//68 44//68 42//68
f 43//69 45//69 46//69 44//69
f 45//70 47//70 48//70 46//70
f 47//71 49//71 50//71 48//71
f 49//72 51//72 52//72 50//72
f 51//73 53//73 54//73 52//73
f 53//74 55//74 56//74 54//74
f 55//75 57//75 58//75 56//75
f 57//76 59//76 60//76 58//76
f 59//77 61//77 62//77 60//77
f 61//78 63//78 64//78 62//78
f 63//79 65//79 66//79 64//79
f 65//80 67//80 68//80 66//80
f 67//81 69//81 70//81 68//81
f 69//82 71//82 72//82 70//82
f 71//83 73//83 74//83 72//83
f 73//84 75//84 76//84 74//84
f 75//85 77//85 78//85 76//85
f 77//86 79//86 80//86 78//86
f 79//87 81//87 82//87 80//87
f 81//88 83//88 84//88 82//88
f 83//89 85//89 86//89 84//89
f 85//90 87//90 88//90 86//90
f 87//91 89//91 90//91 88//91
f 89//92 91//92 92//92 90//92
f 91//93 93//93 94//93 92//93
f 93//94 95//94 96//94 94//94
f 95//95 33//95 34//95 96//95
f 32//96 160//96 97//96 1//96
f 100//97 97//97 98//97 99//97
f 102//98 100//98 99//98 101//98
f 104//99 102//99 101//99 103//99
f 106//100 104//100 103//100 105//100
f 108//101 106//101 105//101 107//101
f 110//102 108//102 107//102 109//102
f 112//103 110//103 109//103 111//103
f 114//104 112//104 111//104 113//104
f 116//105 114//105 113//105 115//105
f 118//106 116//106 115//106 117//106
f 120//107 118//107 117//107 119//107
f 122//108 120//108 119//108 121//108
f 124//109 122//109 121//109 123//109
f 126//110 124//110 123//110 125//110
f 128//111 126//111 125//111 127//111
f 130//112 128//112 127//112 129//112
f 132//113 130//113 129//113 131//113
f 134//114 132//114 131//114 133//114
f 136//115 134//115 133//115 135//115
f 138//116 136//116 135//116 137//116
f 140//117 138//117 137//117 139//117
f 142//118 140//118 139//118 141//118
f 144//119 142//119 141//119 143//119
f 146//120 144//120 143//120 145//120
f 148//121 146//121 145//121 147//121
f 150//122 148//122 147//122 149//122
f 152//123 150//123 149//123 151//123
f 154//124 152//124 151//124 153//124
f 156//125 154//125 153//125 155//125
f 158//126 156//126 155//126 157//126
f 160//127 158//127 157//127 159//127
f 97//128 160//128 159//128 98//128
f 1//129 97//129 100//129 2//129
o Cylinder
v -0.003928 2.592453 -0.128388
v -0.003928 3.739080 0.004350
v 0.006831 2.592453 -0.127328
v 0.006831 3.739080 0.005409
v 0.017176 2.592453 -0.124190
v 0.017176 3.739080 0.008548
v 0.026710 2.592453 -0.119094
v 0.026710 3.739080 0.013644
v 0.035067 2.592453 -0.112236
v 0.035067 3.739080 0.020502
v 0.041925 2.592453 -0.103879
v 0.041925 3.739080 0.028859
v 0.047022 2.592453 -0.094344
v 0.047022 3.739080 0.038393
v 0.050160 2.592453 -0.083999
v 0.050160 3.739080 0.048739
v 0.051219 2.592453 -0.073240
v 0.051219 3.739080 0.059497
v 0.050160 2.592453 -0.062481
v 0.050160 3.739080 0.070256
v 0.047022 2.592453 -0.052136
v 0.047022 3.739080 0.080602
v 0.041925 2.592453 -0.042602
v 0.041925 3.739080 0.090136
v 0.035067 2.592453 -0.034245
v 0.035067 3.739080 0.098493
v 0.026710 2.592453 -0.027387
v 0.026710 3.739080 0.105351
v 0.017176 2.592453 -0.022290
v 0.017176 3.739080 0.110447
v 0.006831 2.592453 -0.019152
v 0.006831 3.739080 0.113586
v -0.003928 2.592453 -0.018093
v -0.003928 3.739080 0.114645
v -0.014687 2.592453 -0.019152
v -0.014687 3.739080 0.113586
v -0.025032 2.592453 -0.022290
v -0.025032 3.739080 0.110447
v -0.034567 2.592453 -0.027387
v -0.034567 3.739080 0.105351
v -0.042924 2.592453 -0.034245
v -0.042924 3.739080 0.098493
v -0.049782 2.592453 -0.042602
v -0.049782 3.739080 0.090136
v -0.054878 2.592453 -0.052136
v -0.054878 3.739080 0.080602
v -0.058016 2.592453 -0.062482
v -0.058016 3.739080 0.070256
v -0.059076 2.592453 -0.073240
v -0.059076 3.739080 0.059497
v -0.058016 2.592453 -0.083999
v -0.058016 3.739080 0.048739
v -0.054878 2.592453 -0.094344
v -0.054878 3.739080 0.038393
v -0.049782 2.592453 -0.103879
v -0.049782 3.739080 0.028859
v -0.042923 2.592453 -0.112236
v -0.042923 3.739080 0.020502
v -0.034567 2.592453 -0.119094
v -0.034567 3.739080 0.013644
v -0.025032 2.592453 -0.124190
v -0.025032 3.739080 0.008548
v -0.014687 2.592453 -0.127328
v -0.014687 3.739080 0.005409
v -0.003928 3.664695 -0.128388
v 0.006831 3.664695 -0.127328
v 0.017176 3.664695 -0.124190
v 0.026710 3.664695 -0.119094
v 0.035067 3.664695 -0.112236
v 0.041925 3.664695 -0.103879
v 0.047022 3.664695 -0.094344
v 0.050160 3.664695 -0.083999
v 0.051219 3.664695 -0.073240
v 0.050160 3.664695 -0.062481
v 0.047022 3.664695 -0.052136
v 0.041925 3.664695 -0.042602
v 0.035067 3.664695 -0.034245
v 0.026710 3.664695 -0.027387
v 0.017176 3.664695 -0.022290
v 0.006831 3.664695 -0.019152
v -0.003928 3.664695 -0.018093
v -0.014687 3.664695 -0.019152
v -0.025032 3.664695 -0.022290
v -0.034567 3.664695 -0.027387
v -0.042924 3.664695 -0.034245
v -0.049782 3.664695 -0.042602
v -0.054878 3.664695 -0.052136
v -0.058016 3.664695 -0.062482
v -0.059076 3.664695 -0.073240
v -0.058016 3.664695 -0.083999
v -0.054878 3.664695 -0.094344
v -0.049782 3.664695 -0.103879
v -0.042923 3.664695 -0.112236
v -0.034567 3.664695 -0.119094
v -0.025032 3.664695 -0.124190
v -0.014687 3.664695 -0.127328
v -0.003928 3.744759 -0.074052
v 0.006831 3.743904 -0.073426
v 0.017176 3.741372 -0.071571
v 0.026710 3.737261 -0.068560
v 0.035067 3.731728 -0.064508
v 0.041925 3.724985 -0.059570
v 0.047022 3.717293 -0.053936
v 0.050160 3.708947 -0.047824
v 0.051219 3.700267 -0.041467
v 0.050160 3.691587 -0.035110
v 0.047022 3.683241 -0.028997
v 0.041925 3.675549 -0.023364
v 0.035067 3.668807 -0.018426
v 0.026710 3.663274 -0.014373
v 0.017176 3.659163 -0.011362
v 0.006831 3.656631 -0.009508
v -0.003928 3.655776 -0.008882
v -0.014687 3.656631 -0.009508
v -0.025032 3.659163 -0.011362
v -0.034567 3.663274 -0.014373
v -0.042924 3.668807 -0.018426
v -0.049782 3.675549 -0.023364
v -0.054878 3.683241 -0.028997
v -0.058016 3.691587 -0.035110
v -0.059076 3.700267 -0.041467
v -0.058016 3.708947 -0.047824
v -0.054878 3.717293 -0.053936
v -0.049782 3.724986 -0.059570
v -0.042923 3.731728 -0.064508
v -0.034567 3.737261 -0.068560
v -0.025032 3.741372 -0.071571
v -0.014687 3.743904 -0.073426
vn 0.0344 0.9972 0.0666
vn 0.1108 0.9929 0.0445
vn 0.2096 0.9778 0.0029
vn 0.3439 0.9376 -0.0514
vn 0.5187 0.8485 -0.1049
vn 0.7175 0.6833 -0.1356
vn 0.8924 0.4352 -0.1196
vn 0.9885 0.1430 -0.0499
vn 0.9896 -0.1324 0.0554
vn 0.9192 -0.3549 0.1706
vn 0.8072 -0.5205 0.2785
vn 0.6738 -0.6390 0.3711
vn 0.5298 -0.7217 0.4455
vn 0.3806 -0.7772 0.5011
vn 0.2291 -0.8113 0.5379
vn 0.0765 -0.8275 0.5562
vn -0.0765 -0.8275 0.5562
vn -0.2291 -0.8113 0.5379
vn -0.3806 -0.7772 0.5011
vn -0.5298 -0.7217 0.4455
vn -0.6738 -0.6390 0.3711
vn -0.8072 -0.5205 0.2785
vn -0.9192 -0.3549 0.1706
vn -0.9896 -0.1324 0.0554
vn -0.9885 0.1430 -0.0499
vn -0.8924 0.4352 -0.1196
vn -0.7175 0.6832 -0.1356
vn -0.5187 0.8485 -0.1049
vn -0.3439 0.9376 -0.0514
vn -0.2096 0.9778 0.0029
vn 0.0000 1.0000 0.0000
vn -0.1108 0.9929 0.0445
vn -0.0344 0.9972 0.0666
vn 0.0000 -1.0000 -0.0000
vn -0.0980 0.0000 -0.9952
vn -0.2903 0.0000 -0.9569
vn -0.4714 0.0000 -0.8819
vn -0.6344 0.0000 -0.7730
vn -0.7730 0.0000 -0.6344
vn -0.8819 0.0000 -0.4714
vn -0.9569 0.0000 -0.2903
vn -0.9952 0.0000 -0.0980
vn -0.9952 0.0000 0.0980
vn -0.9569 0.0000 0.2903
vn -0.8819 0.0000 0.4714
vn -0.7730 0.0000 0.6344
vn -0.6344 0.0000 0.7730
vn -0.4714 0.0000 0.8819
vn -0.2903 0.0000 0.9569
vn -0.0980 0.0000 0.9952
vn 0.0980 0.0000 0.9952
vn 0.2903 0.0000 0.9569
vn 0.4714 0.0000 0.8819
vn 0.6344 0.0000 0.7730
vn 0.7730 0.0000 0.6344
vn 0.8819 0.0000 0.4714
vn 0.9569 0.0000 0.2903
vn 0.9952 0.0000 0.0980
vn 0.9952 0.0000 -0.0980
vn 0.9569 0.0000 -0.2903
vn 0.8819 0.0000 -0.4714
vn 0.7730 0.0000 -0.6344
vn 0.6344 0.0000 -0.7730
vn 0.4714 0.0000 -0.8819
vn 0.2903 0.0000 -0.9569
vn 0.0980 0.0000 -0.9952
vn -0.0868 0.5600 -0.8240
vn -0.2591 0.5449 -0.7975
vn -0.4271 0.5141 -0.7438
vn -0.5866 0.4661 -0.6623
vn -0.7317 0.3993 -0.5524
vn -0.8543 0.3120 -0.4158
vn -0.9447 0.2033 -0.2572
vn -0.9936 0.0731 -0.0859
vn -0.9934 -0.0787 0.0831
vn -0.9395 -0.2547 0.2291
vn -0.8265 -0.4625 0.3209
vn -0.6399 -0.7068 0.3017
vn -0.3636 -0.9275 0.0866
vn -0.0881 -0.9566 -0.2778
vn 0.0309 -0.8338 -0.5511
vn 0.0229 -0.7428 -0.6691
vn -0.0229 -0.7428 -0.6691
vn -0.0309 -0.8339 -0.5511
vn 0.0881 -0.9566 -0.2778
vn 0.3636 -0.9275 0.0866
vn 0.6399 -0.7068 0.3017
vn 0.8265 -0.4625 0.3209
vn 0.9395 -0.2547 0.2291
vn 0.9934 -0.0787 0.0831
vn 0.9936 0.0731 -0.0859
vn 0.9447 0.2033 -0.2572
vn 0.8543 0.3120 -0.4158
vn 0.7317 0.3993 -0.5524
vn 0.5866 0.4661 -0.6622
vn 0.4271 0.5141 -0.7438
vn 0.2591 0.5449 -0.7975
vn 0.0868 0.5600 -0.8240
usemtl None
s off
f 257//130 162//130 164//130 258//130
f 258//131 164//131 166//131 259//131
f 259//132 166//132 168//132 260//132
f 260//133 168//133 170//133 261//133
f 261//134 170//134 172//134 262//134
f 262//135 172//135 174//135 263//135
f 263//136 174//136 176//136 264//136
f 264//137 176//137 178//137 265//137
f 265//138 178//138 180//138 266//138
f 266//139 180//139 182//139 267//139
f 267//140 182//140 184//140 268//140
f 268//141 184//141 186//141 269//141
f 269//142 186//142 188//142 270//142
f 270//143 188//143 190//143 271//143
f 271//144 190//144 192//144 272//144
f 272//145 192//145 194//145 273//145
f 273//146 194//146 196//146 274//146
f 274//147 196//147 198//147 275//147
f 275//148 198//148 200//148 276//148
f 276//149 200//149 202//149 277//149
f 277//150 202//150 204//150 278//150
f 278//151 204//151 206//151 279//151
f 279//152 206//152 208//152 280//152
f 280//153 208//153 210//153 281//153
f 281//154 210//154 212//154 282//154
f 282//155 212//155 214//155 283//155
f 283//156 214//156 216//156 284//156
f 284//157 216//157 218//157 285//157
f 285//158 218//158 220//158 286//158
f 286//159 220//159 222//159 287//159
f 164//160 162//160 224//160 222//160 220//160 218//160 216//160 214//160 212//160 210//160 208//160 206//160 204//160 202//160 200//160 198//160 196//160 194//160 192//160 190//160 188//160 186//160 184//160 182//160 180//160 178//160 176//160 174//160 172//160 170//160 168//160 166//160
f 287//161 222//161 224//161 288//161
f 288//162 224//162 162//162 257//162
f 161//163 163//163 165//163 167//163 169//163 171//163 173//163 175//163 177//163 179//163 181//163 183//163 185//163 187//163 189//163 191//163 193//163 195//163 197//163 199//163 201//163 203//163 205//163 207//163 209//163 211//163 213//163 215//163 217//163 219//163 221//163 223//163
f 223//164 256//164 225//164 161//164
f 221//165 255//165 256//165 223//165
f 219//166 254//166 255//166 221//166
f 217//167 253//167 254//167 219//167
f 215//168 252//168 253//168 217//168
f 213//169 251//169 252//169 215//169
f 211//170 250//170 251//170 213//170
f 209//171 249//171 250//171 211//171
f 207//172 248//172 249//172 209//172
f 205//173 247//173 248//173 207//173
f 203//174 246//174 247//174 205//174
f 201//175 245//175 246//175 203//175
f 199//176 244//176 245//176 201//176
f 197//177 243//177 244//177 199//177
f 195//178 242//178 243//178 197//178
f 193//179 241//179 242//179 195//179
f 191//180 240//180 241//180 193//180
f 189//181 239//181 240//181 191//181
f 187//182 238//182 239//182 189//182
f 185//183 237//183 238//183 187//183
f 183//184 236//184 237//184 185//184
f 181//185 235//185 236//185 183//185
f 179//186 234//186 235//186 181//186
f 177//187 233//187 234//187 179//187
f 175//188 232//188 233//188 177//188
f 173//189 231//189 232//189 175//189
f 171//190 230//190 231//190 173//190
f 169//191 229//191 230//191 171//191
f 167//192 228//192 229//192 169//192
f 165//193 227//193 228//193 167//193
f 163//194 226//194 227//194 165//194
f 161//195 225//195 226//195 163//195
f 256//196 288//196 257//196 225//196
f 255//197 287//197 288//197 256//197
f 254//198 286//198 287//198 255//198
f 253//199 285//199 286//199 254//199
f 252//200 284//200 285//200 253//200
f 251//201 283//201 284//201 252//201
f 250//202 282//202 283//202 251//202
f 249//203 281//203 282//203 250//203
f 248//204 280//204 281//204 249//204
f 247//205 279//205 280//205 248//205
f 246//206 278//206 279//206 247//206
f 245//207 277//207 278//207 246//207
f 244//208 276//208 277//208 245//208
f 243//209 275//209 276//209 244//209
f 242//210 274//210 275//210 243//210
f 241//211 273//211 274//211 242//211
f 240//212 272//212 273//212 241//212
f 239//213 271//213 272//213 240//213
f 238//214 270//214 271//214 239//214
f 237//215 269//215 270//215 238//215
f 236//216 268//216 269//216 237//216
f 235//217 267//217 268//217 236//217
f 234//218 266//218 267//218 235//218
f 233//219 265//219 266//219 234//219
f 232//220 264//220 265//220 233//220
f 231//221 263//221 264//221 232//221
f 230//222 262//222 263//222 231//222
f 229//223 261//223 262//223 230//223
f 228//224 260//224 261//224 229//224
f 227//225 259//225 260//225 228//225
f 226//226 258//226 259//226 227//226
f 225//227 257//227 258//227 226//227
o Cube_Cube.001
v -0.326075 1.935796 -0.133856
v -0.326075 2.587946 -0.133856
v 0.326075 1.935796 -0.133856
v 0.326075 2.587946 -0.133856
v -0.326075 2.587946 -0.011570
v 0.326075 1.935796 -0.011570
v -0.326075 1.935796 -0.011570
v 0.326075 2.587946 -0.011570
vn -1.0000 0.0000 0.0000
vn 0.0000 0.0000 -1.0000
vn 1.0000 0.0000 0.0000
vn 0.0000 -1.0000 0.0000
vn 0.0000 1.0000 0.0000
usemtl None
s off
f 295//228 293//228 290//228 289//228
f 289//229 290//229 292//229 291//229
f 291//230 292//230 296//230 294//230
f 289//231 291//231 294//231 295//231
f 292//232 290//232 293//232 296//232
