# Blender v2.78 (sub 0) OBJ File: ''
# www.blender.org
mtllib temp_playermodel.mtl
o Cube.005
v -0.538813 3.832483 0.538813
v -0.538813 4.910109 0.538813
v -0.538813 3.832483 -0.538813
v -0.538813 4.910109 -0.538813
v 0.538813 3.832483 0.538813
v 0.538813 4.910109 0.538813
v 0.538813 3.832483 -0.538813
v 0.538813 4.910109 -0.538813
vn -1.0000 0.0000 0.0000
vn 0.0000 0.0000 -1.0000
vn 1.0000 0.0000 0.0000
vn 0.0000 0.0000 1.0000
vn 0.0000 -1.0000 0.0000
vn 0.0000 1.0000 0.0000
usemtl None
s off
f 1//1 2//1 4//1 3//1
f 3//2 4//2 8//2 7//2
f 7//3 8//3 6//3 5//3
f 5//4 6//4 2//4 1//4
f 3//5 7//5 5//5 1//5
f 8//6 4//6 2//6 6//6
o Cube.004
v -0.505237 1.757267 1.776082
v -0.505237 3.757267 1.776082
v -0.505237 1.757267 0.983767
v -0.505237 3.757267 0.983767
v 0.505237 1.757267 1.776082
v 0.505237 3.757267 1.776082
v 0.505237 1.757267 0.983767
v 0.505237 3.757267 0.983767
vn -1.0000 0.0000 0.0000
vn 0.0000 0.0000 -1.0000
vn 1.0000 0.0000 0.0000
vn 0.0000 0.0000 1.0000
vn 0.0000 -1.0000 0.0000
vn 0.0000 1.0000 0.0000
usemtl None
s off
f 9//7 10//7 12//7 11//7
f 11//8 12//8 16//8 15//8
f 15//9 16//9 14//9 13//9
f 13//10 14//10 10//10 9//10
f 11//11 15//11 13//11 9//11
f 16//12 12//12 10//12 14//12
o Cube.003
v -0.505237 1.757267 -0.949707
v -0.505237 3.757267 -0.949707
v -0.505237 1.757267 -1.742021
v -0.505237 3.757267 -1.742021
v 0.505237 1.757267 -0.949707
v 0.505237 3.757267 -0.949707
v 0.505237 1.757267 -1.742021
v 0.505237 3.757267 -1.742021
vn -1.0000 0.0000 0.0000
vn 0.0000 0.0000 -1.0000
vn 1.0000 0.0000 0.0000
vn 0.0000 0.0000 1.0000
vn 0.0000 -1.0000 0.0000
vn 0.0000 1.0000 0.0000
usemtl None
s off
f 17//13 18//13 20//13 19//13
f 19//14 20//14 24//14 23//14
f 23//15 24//15 22//15 21//15
f 21//16 22//16 18//16 17//16
f 19//17 23//17 21//17 17//17
f 24//18 20//18 18//18 22//18
o Cube.002
v -0.505237 -0.061605 -0.123371
v -0.505237 1.938395 -0.123371
v -0.505237 -0.061605 -0.915685
v -0.505237 1.938395 -0.915685
v 0.505237 -0.061605 -0.123371
v 0.505237 1.938395 -0.123371
v 0.505237 -0.061605 -0.915685
v 0.505237 1.938395 -0.915685
vn -1.0000 0.0000 0.0000
vn 0.0000 0.0000 -1.0000
vn 1.0000 0.0000 0.0000
vn 0.0000 0.0000 1.0000
vn 0.0000 -1.0000 0.0000
vn 0.0000 1.0000 0.0000
usemtl None
s off
f 25//19 26//19 28//19 27//19
f 27//20 28//20 32//20 31//20
f 31//21 32//21 30//21 29//21
f 29//22 30//22 26//22 25//22
f 27//23 31//23 29//23 25//23
f 32//24 28//24 26//24 30//24
o Cube.001
v -0.505237 -0.061605 0.947180
v -0.505237 1.938395 0.947180
v -0.505237 -0.061605 0.154866
v -0.505237 1.938395 0.154866
v 0.505237 -0.061605 0.947180
v 0.505237 1.938395 0.947180
v 0.505237 -0.061605 0.154866
v 0.505237 1.938395 0.154866
vn -1.0000 0.0000 0.0000
vn 0.0000 0.0000 -1.0000
vn 1.0000 0.0000 0.0000
vn 0.0000 0.0000 1.0000
vn 0.0000 -1.0000 0.0000
vn 0.0000 1.0000 0.0000
usemtl None
s off
f 33//25 34//25 36//25 35//25
f 35//26 36//26 40//26 39//26
f 39//27 40//27 38//27 37//27
f 37//28 38//28 34//28 33//28
f 35//29 39//29 37//29 33//29
f 40//30 36//30 34//30 38//30
o Cube
v 1.000000 1.855754 -1.000000
v 1.000000 1.855754 1.000000
v -1.000000 1.855754 1.000000
v -1.000000 1.855754 -1.000000
v 1.000000 3.855754 -0.999999
v 0.999999 3.855754 1.000001
v -1.000000 3.855754 1.000000
v -1.000000 3.855754 -1.000000
vn 0.0000 -1.0000 -0.0000
vn 0.0000 1.0000 0.0000
vn 1.0000 0.0000 0.0000
vn -0.0000 -0.0000 1.0000
vn -1.0000 -0.0000 -0.0000
vn 0.0000 0.0000 -1.0000
usemtl Material
s off
f 41//31 42//31 43//31 44//31
f 45//32 48//32 47//32 46//32
f 41//33 45//33 46//33 42//33
f 42//34 46//34 47//34 43//34
f 43//35 47//35 48//35 44//35
f 45//36 41//36 44//36 48//36
